<svg width="139" height="34" viewBox="0 0 139 34" fill="none" xmlns="http://www.w3.org/2000/svg">
            <path d="M55.8511 23.3947H59.0155C58.6561 25.3035 57.7988 26.8505 56.4703 27.9434C55.1419 29.0363 53.4322 29.59 51.3922 29.59C49.7359 29.59 48.2569 29.2135 46.9989 28.4728C45.7385 27.7297 44.7476 26.6757 44.0506 25.3375C43.3585 24.0067 43.0063 22.4937 43.0063 20.7767C43.0063 19.0597 43.3585 17.5467 44.0506 16.2158C44.7476 14.8801 45.7385 13.8237 46.9989 13.083C48.2569 12.3422 49.7335 11.9658 51.3922 11.9658C53.4322 11.9658 55.1419 12.5195 56.4703 13.6124C57.7988 14.7052 58.6561 16.2522 59.0155 18.1611H55.8511C55.6228 17.1071 55.1128 16.3445 54.3308 15.7471C53.5463 15.1497 52.5579 14.8437 51.3922 14.8437C49.8743 14.8437 48.6261 15.3974 47.6838 16.4854C46.7293 17.5831 46.2485 19.0062 46.2485 20.7767C46.2485 22.5471 46.7318 23.9678 47.6838 25.068C48.6261 26.156 49.8743 26.7097 51.3922 26.7097C52.5579 26.7097 53.5463 26.4061 54.3308 25.8062C55.1128 25.2112 55.6228 24.4487 55.8511 23.3947Z" fill="#1B2032"></path>
            <path d="M68.5953 29.5888C66.3635 29.5888 64.5396 29.0643 63.1796 28.0297C61.8002 26.9805 61.0886 25.5015 61.0643 23.6388L61.0619 23.3935H64.2287L64.2385 23.6243C64.2798 24.5641 64.6829 25.3097 65.4722 25.9047C66.2687 26.5045 67.3179 26.8081 68.5929 26.8081C69.7222 26.8081 70.645 26.5847 71.3348 26.1403C72.0002 25.7128 72.3232 25.1737 72.3232 24.4888C72.3232 23.9011 72.1702 23.4518 71.869 23.1483C71.5533 22.8325 71.1332 22.6115 70.6208 22.4901C70.0743 22.3614 69.2802 22.2303 68.265 22.1015C66.8152 21.9267 65.6082 21.6911 64.678 21.4021C63.7212 21.1058 62.9343 20.625 62.3393 19.9717C61.7322 19.3038 61.4237 18.3834 61.4237 17.2323C61.4237 16.2001 61.72 15.2675 62.3077 14.4637C62.8882 13.6671 63.6896 13.0381 64.6877 12.5961C65.6762 12.1565 66.803 11.9355 68.0367 11.9355C70.05 11.9355 71.716 12.4164 72.991 13.3611C74.2806 14.3204 75.0043 15.7047 75.1403 17.4751L75.1598 18.1624H71.9929L71.9662 17.5237C71.8642 16.7077 71.4756 16.052 70.7786 15.5177C70.0816 14.9834 69.1903 14.7138 68.1339 14.7138C67.0507 14.7138 66.1667 14.9373 65.511 15.3793C64.8747 15.8067 64.5663 16.3483 64.5663 17.0331C64.5663 17.5358 64.7023 17.9098 64.9816 18.1697C65.2755 18.4441 65.6616 18.6335 66.1303 18.7331C66.6355 18.84 67.4199 18.9614 68.4569 19.0901C69.931 19.265 71.1672 19.5127 72.1289 19.8211C73.1197 20.1393 73.9309 20.6614 74.5356 21.3705C75.1525 22.0918 75.4633 23.0705 75.4633 24.2848C75.4633 25.3413 75.1476 26.286 74.5259 27.0923C73.9115 27.8888 73.0712 28.5105 72.0293 28.9404C71.0045 29.3727 69.846 29.5888 68.5953 29.5888Z" fill="#1B2032"></path>
            <path d="M95.3364 23.3957H98.5008C98.1414 25.3046 97.2841 26.8516 95.9557 27.9444C94.6273 29.0373 92.9176 29.591 90.8776 29.591C89.2213 29.591 87.7423 29.2146 86.4843 28.4739C85.2238 27.7307 84.233 26.6767 83.536 25.3386C82.8438 24.0077 82.4917 22.4947 82.4917 20.7777C82.4917 19.0607 82.8438 17.5477 83.536 16.2169C84.233 14.8811 85.2238 13.8247 86.4843 13.084C87.7423 12.3433 89.2188 11.9669 90.8776 11.9669C92.9176 11.9669 94.6273 12.5206 95.9557 13.6134C97.2841 14.7063 98.1414 16.2533 98.5008 18.1621H95.3364C95.1081 17.1081 94.5981 16.3456 93.8161 15.7481C93.0317 15.1507 92.0433 14.8447 90.8776 14.8447C89.3597 14.8447 88.1114 15.3984 87.1691 16.4864C86.2147 17.5841 85.7338 19.0073 85.7338 20.7777C85.7338 22.5481 86.2171 23.9689 87.1691 25.069C88.1114 26.157 89.3597 26.7107 90.8776 26.7107C92.0433 26.7107 93.0317 26.4071 93.8161 25.8073C94.5981 25.2123 95.1081 24.4497 95.3364 23.3957Z" fill="#1B2032"></path>
            <path d="M106.834 29.5917C104.927 29.5917 103.368 29.1327 102.205 28.2269C101.022 27.3065 100.42 26.0387 100.42 24.4577C100.42 21.1865 103.159 19.1829 106.608 19.1829H112.074V18.0876C112.074 17.0579 111.744 16.2807 111.062 15.7125C110.377 15.1393 109.396 14.8503 108.147 14.8503C107.042 14.8503 106.122 15.0956 105.41 15.5789C104.704 16.0597 104.279 16.6839 104.116 17.4805L104.077 18.1653H100.915L100.947 17.4027C101.151 15.7003 101.918 14.3525 103.227 13.3956C104.522 12.4509 106.222 11.97 108.279 11.97C110.474 11.97 112.201 12.514 113.413 13.5899C114.632 14.673 115.251 16.2419 115.251 18.2527V25.4753C115.251 26.148 115.521 26.4492 116.125 26.4492H117.187V29.395H115.467C114.335 29.395 113.507 29.1522 113.002 28.6713C112.621 28.307 112.373 27.814 112.266 27.1972C110.952 28.7879 109.129 29.5917 106.834 29.5917ZM107.13 21.932C104.774 21.932 103.628 22.578 103.628 24.295C103.628 25.0552 103.919 25.6477 104.519 26.1067C105.129 26.5755 105.974 26.811 107.033 26.811C108.604 26.811 109.852 26.3957 110.744 25.5773C111.628 24.7637 112.077 23.6709 112.077 22.323V21.9296H107.13V21.932Z" fill="#1B2032"></path>
            <path d="M118.772 29.3944V12.1661H121.946V14.2984C122.388 13.7325 122.835 13.2614 123.452 12.8898C124.253 12.4089 125.366 12.1661 126.762 12.1661H127.758V15.2746H126.17C124.644 15.2746 123.59 15.7652 122.942 16.7731C122.281 17.8004 121.946 19.0948 121.946 20.6151V29.3919H118.772V29.3944Z" fill="#1B2032"></path>
            <path d="M134.346 29.3948C132.709 29.3948 131.517 29.0159 130.805 28.2704C130.096 27.5272 129.737 26.3542 129.737 24.7878V8.17151H132.911V12.1665H137.457V15.1124H132.911V24.7538C132.911 25.3876 133.028 25.8345 133.258 26.0847C133.484 26.3275 133.904 26.4514 134.509 26.4514H137.46V29.3972H134.346V29.3948Z" fill="#1B2032"></path>
            <path d="M33.6597 11.9916V29.5696C33.6597 31.68 31.9499 33.3897 29.8395 33.3897H12.2615C10.1511 33.3897 8.44137 31.68 8.44137 29.5696V11.9916C8.44137 9.88113 10.1511 8.17141 12.2615 8.17141H29.8395C31.9499 8.17141 33.6597 9.88113 33.6597 11.9916ZM4.85194 0.761841C2.74151 0.761841 1.0318 2.47156 1.0318 4.58198C1.0318 6.69241 2.74151 8.40213 4.85194 8.40213C6.96237 8.40213 8.67208 6.69241 8.67208 4.58198C8.67208 2.47156 6.96237 0.761841 4.85194 0.761841Z" fill="url(#paint0_linear_456_1012)"></path>
            <defs>
            <linearGradient id="paint0_linear_456_1012" x1="5.85606" y1="28.5663" x2="28.8367" y2="5.58564" gradientUnits="userSpaceOnUse">
            <stop stop-color="#7381FD"></stop>
            <stop offset="1" stop-color="#76C7FF"></stop>
            </linearGradient>
            </defs>
          </svg>